**ABCDEFGHIJKLMNOPQRSTUVWXYZabcdefghijklmnopqrstuvwxyz**************************
**PARASOLID !"#$%&'()*+,-./:;<=>?@[\]^_`{|}~0123456789**************************
**PART1;
MC=^_;
MC_MODEL=authenticamd family 15 model 1 stepping 0, amd ryzen 5 5600x 6-core processor             ;
MC_ID=^_;
OS=windows nt (x64);
OS_RELEASE=6.3 windows 10 pro (build 19045) ;
FRU=mdc_ugii_v7.0_djl_can_vrh;
APPL=unigraphics;
SITE=unknown;
USER=^_;
FORMAT=text;
GUISE=transmit;
KEY=lzh3.1_1;
FILE=^_;
DATE=13-may-2025;
**PART2;
SCH=SCH_3700134_36001;
USFLD_SIZE=0;
**PART3;
**END_OF_HEADER*****************************************************************
T51 : TRANSMIT FILE created by modeller version 370013417 SCH_3600000_360010 10
 1 1 0 0 0 0 0 0 0 0 0 0 1e3 1e-8 0 0 0 1 0 1 2 0 11 2 1 0 1 3 0 1 0 0 0 0 12 3
 118 4 5 0 0 0 0 0 0 0 1e3 1e-8 2 0 0 1 0 1 1 6 0 7 8 0 0 0 9 10 0 0 0 0 0 0 0 0
 81 1 4 114 11 3 12 0 0 0 13 70 5 0 4 T3 0 0 6 20 1 14 14 13 6 3 0 3 0 15 0 0 16
 0 53 7 55 0 17 18 0 0 +.225 .225 .025 .0672681202353685 0 0 1 1 0 0 31 8 16 0 1
0 19 0 0 +.225 .225 .07 0 0 -1 1 0 0 .05 19 9 46 0 3 16 0 20 0 V0 16 10 12 21 ?2
2 0 23 8 0 0 3 81 1 21 115 24 10 25 0 26 27 28 17 22 0 29 22 22 0 30 10 0 0 +16
 23 6 27 ?31 10 32 19 0 0 3 81 1 27 116 24 23 33 0 21 34 35 17 31 0 36 31 31 0 3
7 23 0 0 +16 32 72 34 ?38 23 39 40 0 0 3 31 19 10 0 23 41 8 0 +.225 .225 .02 0 0
 1 1 0 0 .095 31 41 89 0 39 40 19 0 -.225 .225 .02 0 0 -1 -1 0 0 .08827318797646
32 16 39 73 42 ?43 32 0 41 0 0 3 31 40 90 0 32 0 41 0 +.225 .225 .06665517634188
78 0 0 -1 -1 0 0 .0462835292687642 81 1 42 118 24 39 44 0 34 0 45 17 43 0 46 43
 43 0 47 39 0 0 +15 46 67 0 43 15 48 17 47 0 49 47 47 0 43 39 0 0 -15 49 80 0 47
 50 0 14 50 77 51 ?52 17 53 6 54 -0 0 52 17 20 81 1 51 111 24 50 55 0 56 26 57 1
4 52 81 26 ?0 50 58 6 59 -0 0 0 50 20 14 17 50 56 ?50 60 61 6 7 +0 0 50 60 20 15
 53 79 0 62 50 49 52 54 87 0 50 0 59 0 +.225 .225 .0666551763418878 0 0 -1 .0462
835292687642 .66896473162245 .743294146247166 1 0 0 13 20 45 0 0 0 0 0 0 9 15 14
 15 9 63 ?60 0 46 6 64 +0 0 60 0 20 81 1 63 105 24 15 65 0 0 66 67 14 60 2 66 ?1
7 15 29 6 18 +0 0 17 15 20 50 64 11 0 15 59 18 0 +.225 .225 .02 0 0 -1 -1 0 0 53
 59 86 0 52 54 64 0 +.225 .225 .025 .0622681202353686 0 0 1 1 0 0 52 18 18 0 60
 64 7 0 +.225 .225 .07 0 0 -1 .05 .66896473162245 .743294146247166 1 0 0 81 1 66
 107 24 60 68 0 63 56 69 15 29 13 0 22 60 36 15 36 7 0 31 60 0 80 1 24 0 70 8001
 0 0 0 0 3 5 0 0 0 FFFFTFTFFFFFFFFFF2 81 1 68 106 71 60 72 66 65 73 74 81 1 56 1
09 24 17 73 0 66 51 75 83 3 69 .611764705882353 .658823529411765 .67058823529411
8 81 1 73 108 71 17 76 56 68 55 77 83 3 75 .611764705882353 .658823529411765 .67
0588235294118 80 1 71 78 79 8015 0 0 0 0 3 5 0 0 0 FFFFTFFFFFFFFFFFF2 81 1 76 64
 80 17 0 73 72 81 82 81 1 55 110 71 50 83 51 73 84 85 83 1 77 0 81 1 83 99 80 50
 0 55 86 87 88 81 1 84 112 71 52 87 26 55 0 89 83 1 85 0 81 1 87 100 80 52 0 84
 83 0 90 81 1 26 113 24 52 84 0 51 21 91 83 1 89 0 83 3 91 .611764705882353 .658
823529411765 .670588235294118 80 1 80 92 93 9000 1 1 1 1 1 1 1 1 0 FFFFTFTFFFFFF
FFFF3 84 32 90 6a5415d2fbf112eebf5e5b81a682236979 15 93 UGS/ObjectState81 1 86 9
8 80 15 0 65 44 83 94 84 32 88 339d7479446200a3a6cca5ec549a610781 1 65 104 71 15
 86 63 0 68 95 81 1 44 97 80 39 0 42 81 86 96 84 32 94 30f6184e3b4fb2a81a653d229
6562d7c81 1 81 96 80 32 0 34 76 44 97 84 32 96 c113229cfe3fbb3603415361a67cbe1e8
1 1 34 117 24 32 81 0 27 42 98 84 32 97 41f816de6aa4dcca25d83d88d894e17983 3 98
 .611764705882353 .658823529411765 .670588235294118 83 1 95 0 81 1 72 63 80 60 0
 68 25 76 99 84 32 82 4a801b6533a4687774edc9ffe0725c6b81 1 25 62 80 10 0 21 33 7
2 100 84 32 99 222c7662820798006b8e23100903f4ba81 1 33 31 80 23 0 27 0 25 101 84
 32 100 8947a3f257e4c7371adc6ed7ef7980f784 32 101 59077f5d1d5a22317ca96a97d5a518
3e79 21 79 SDL/TYSA_TRANSLUCENCY83 1 74 0 79 15 70 SDL/TYSA_COLOUR83 3 67 .61176
4705882353 .658823529411765 .670588235294118 17 62 0 53 62 62 0 38 32 0 0 -17 38
 0 58 38 38 0 62 32 0 0 +15 58 83 0 38 52 0 15 61 51 0 30 17 0 17 30 0 61 30 30
 0 22 10 0 0 -83 3 57 .611764705882353 .658823529411765 .670588235294118 15 48 8
 0 37 15 0 17 37 0 48 37 37 0 31 23 0 0 -83 3 45 .611764705882353 .6588235294117
65 .670588235294118 83 3 35 .611764705882353 .658823529411765 .670588235294118 8
3 3 28 .611764705882353 .658823529411765 .670588235294118 19 16 5 0 3 0 9 6 0 S0
 74 20 14 6 0 0 87 102 12 84 42 4 0 0 0 0 0 0 0 0 0 0 0 0 0 0 81 2 102 61 103 3
 0 12 0 0 104 105 81 1 12 103 106 3 102 4 0 0 107 80 1 106 108 109 9000 0 0 0 0
 3 5 0 0 0 FFTFFFFFFFFFFFFFF1 82 1 107 -1 79 19 109 UG2/PMARK_ATTRIBUTE80 2 103
 110 111 8004 0 0 0 0 3 5 0 0 0 FFTFFFFFFFFFFFFFF2 3 83 1 104 7830.64 84 8 105 K
g/Cu M 79 16 111 SDL/TYSA_DENSITY80 1 11 24 112 8040 0 0 0 0 3 5 0 0 0 TTTFFFFFF
FFFFFFFF2 83 3 13 .611764705882353 .658823529411765 .670588235294118 79 17 112 S
DL/TYSA_COLOUR_21 0 
